<svg width="26" height="26" viewBox="0 0 26 26" fill="none" xmlns="http://www.w3.org/2000/svg">
<path d="M8.73436 14.151C9.05034 13.8351 9.20832 13.4514 9.20832 13C9.20832 12.5486 9.05034 12.1649 8.73436 11.849C8.41839 11.533 8.03471 11.375 7.58332 11.375C7.13193 11.375 6.74825 11.533 6.43228 11.849C6.11631 12.1649 5.95832 12.5486 5.95832 13C5.95832 13.4514 6.11631 13.8351 6.43228 14.151C6.74825 14.467 7.13193 14.625 7.58332 14.625C8.03471 14.625 8.41839 14.467 8.73436 14.151ZM14.151 14.151C14.467 13.8351 14.625 13.4514 14.625 13C14.625 12.5486 14.467 12.1649 14.151 11.849C13.8351 11.533 13.4514 11.375 13 11.375C12.5486 11.375 12.1649 11.533 11.8489 11.849C11.533 12.1649 11.375 12.5486 11.375 13C11.375 13.4514 11.533 13.8351 11.8489 14.151C12.1649 14.467 12.5486 14.625 13 14.625C13.4514 14.625 13.8351 14.467 14.151 14.151ZM19.5677 14.151C19.8837 13.8351 20.0417 13.4514 20.0417 13C20.0417 12.5486 19.8837 12.1649 19.5677 11.849C19.2517 11.533 18.868 11.375 18.4167 11.375C17.9653 11.375 17.5816 11.533 17.2656 11.849C16.9496 12.1649 16.7917 12.5486 16.7917 13C16.7917 13.4514 16.9496 13.8351 17.2656 14.151C17.5816 14.467 17.9653 14.625 18.4167 14.625C18.868 14.625 19.2517 14.467 19.5677 14.151ZM13 23.8333C11.5014 23.8333 10.093 23.549 8.77499 22.9802C7.45693 22.4115 6.31041 21.6396 5.33541 20.6646C4.36041 19.6896 3.58853 18.5431 3.01978 17.225C2.45103 15.9069 2.16666 14.4986 2.16666 13C2.16666 11.5014 2.45103 10.0931 3.01978 8.775C3.58853 7.45695 4.36041 6.31042 5.33541 5.33542C6.31041 4.36042 7.45693 3.58855 8.77499 3.0198C10.093 2.45105 11.5014 2.16667 13 2.16667C14.4986 2.16667 15.9069 2.45105 17.225 3.0198C18.543 3.58855 19.6896 4.36042 20.6646 5.33542C21.6396 6.31042 22.4114 7.45695 22.9802 8.775C23.5489 10.0931 23.8333 11.5014 23.8333 13C23.8333 14.4986 23.5489 15.9069 22.9802 17.225C22.4114 18.5431 21.6396 19.6896 20.6646 20.6646C19.6896 21.6396 18.543 22.4115 17.225 22.9802C15.9069 23.549 14.4986 23.8333 13 23.8333ZM13 21.6667C15.4194 21.6667 17.4687 20.8271 19.1479 19.1479C20.8271 17.4688 21.6667 15.4194 21.6667 13C21.6667 10.5806 20.8271 8.53125 19.1479 6.85209C17.4687 5.17292 15.4194 4.33334 13 4.33334C10.5805 4.33334 8.53124 5.17292 6.85207 6.85209C5.17291 8.53125 4.33332 10.5806 4.33332 13C4.33332 15.4194 5.17291 17.4688 6.85207 19.1479C8.53124 20.8271 10.5805 21.6667 13 21.6667Z" fill="#FE9A86"/>
</svg>
